<?xml version="1.0" encoding="UTF-8" standalone="no"?>
<!-- Generator: Adobe Illustrator 24.3.0, SVG Export Plug-In . SVG Version: 6.00 Build 0)  -->

<svg
   xmlns:dc="http://purl.org/dc/elements/1.1/"
   xmlns:cc="http://creativecommons.org/ns#"
   xmlns:rdf="http://www.w3.org/1999/02/22-rdf-syntax-ns#"
   xmlns:svg="http://www.w3.org/2000/svg"
   xmlns="http://www.w3.org/2000/svg"
   xmlns:sodipodi="http://sodipodi.sourceforge.net/DTD/sodipodi-0.dtd"
   xmlns:inkscape="http://www.inkscape.org/namespaces/inkscape"
   version="1.1"
   id="Livello_1"
   x="0px"
   y="0px"
   viewBox="0 0 299.99999 299.99999"
   xml:space="preserve"
   sodipodi:docname="mc-logo.svg"
   width="300"
   height="300"
   inkscape:version="0.92.5 (2060ec1f9f, 2020-04-08)"><metadata
   id="metadata1388"><rdf:RDF><cc:Work
       rdf:about=""><dc:format>image/svg+xml</dc:format><dc:type
         rdf:resource="http://purl.org/dc/dcmitype/StillImage" /><dc:title></dc:title></cc:Work></rdf:RDF></metadata><defs
   id="defs1386" /><sodipodi:namedview
   pagecolor="#ffffff"
   bordercolor="#666666"
   borderopacity="1"
   objecttolerance="10"
   gridtolerance="10"
   guidetolerance="10"
   inkscape:pageopacity="0"
   inkscape:pageshadow="2"
   inkscape:window-width="3728"
   inkscape:window-height="2032"
   id="namedview1384"
   showgrid="false"
   units="px"
   inkscape:zoom="1.1213358"
   inkscape:cx="515.94396"
   inkscape:cy="228.92764"
   inkscape:window-x="112"
   inkscape:window-y="54"
   inkscape:window-maximized="1"
   inkscape:current-layer="Livello_1" />
<style
   type="text/css"
   id="style1013">
	.st0{fill:#003057;}
	.st1{fill:#FFFFFF;}
	.st2{fill:#10CFC9;}
</style>





























































































<g
   id="g1381"
   transform="translate(-222.90307,-868.58)">
	<rect
   x="324.13"
   y="969.81"
   class="st2"
   width="97.540001"
   height="97.540001"
   id="rect1373"
   style="fill:#10cfc9" />
	<path
   class="st0"
   d="m 418.33,1164.89 h -90.85 c -1.85,0 -3.34,-1.5 -3.34,-3.34 v -94.2 h 97.54 v 94.2 c -0.01,1.84 -1.51,3.34 -3.35,3.34 z"
   id="path1375"
   inkscape:connector-curvature="0"
   style="fill:#003057" />
	<path
   class="st0"
   d="m 515.87,1067.35 h -94.2 v -97.54 h 94.2 c 1.85,0 3.34,1.5 3.34,3.34 V 1064 c 0,1.85 -1.5,3.35 -3.34,3.35 z"
   id="path1377"
   inkscape:connector-curvature="0"
   style="fill:#003057" />
	<path
   class="st0"
   d="m 331.24,969.81 h 90.43 v -90.43 c 0,-3.93 -3.18,-7.11 -7.11,-7.11 h -88.82 c -53.49,0 -98.24,42.39 -99.13,95.87 -0.91,54.63 43.1,99.21 97.53,99.21 v -90.43 c -0.01,-3.93 3.17,-7.11 7.1,-7.11 z"
   id="path1379"
   inkscape:connector-curvature="0"
   style="fill:#003057" />
</g>
</svg>